REM DIRINDEX 1\6,1\2\7,1\2\8,1\2\9,1\3\10,1\3\11,1\4\12,1\4\13,1\4\14,1\5\15,1\5\16,1\5\17
REM DIRNAME cjc040,folder01,folder02,folder03,folder04,folder05,folder06,folder07,folder08,folder09,folder10,folder11,folder12,folder13,folder14,folder15,folder16
TITLE ""
FILE "P2Q_j_1114-1127.mp3" MP3
  TRACK 01 AUDIO
    TITLE "12:cjc040_0086"
    INDEX 01 00:00:00
  TRACK 02 AUDIO
    TITLE "0:"
    INDEX 01 00:01:71
  TRACK 03 AUDIO
    TITLE "13:cjc040_0087"
    INDEX 01 00:02:55
  TRACK 04 AUDIO
    TITLE "0:"
    INDEX 01 00:04:44
  TRACK 05 AUDIO
    TITLE "14:cjc040_0088"
    INDEX 01 00:05:24
  TRACK 06 AUDIO
    TITLE "0:"
    INDEX 01 00:10:66
  TRACK 07 AUDIO
    TITLE "12:cjc040_0089"
    INDEX 01 00:11:48
  TRACK 08 AUDIO
    TITLE "0:"
    INDEX 01 00:14:09
  TRACK 09 AUDIO
    TITLE "13:cjc040_0090"
    INDEX 01 00:14:54
  TRACK 10 AUDIO
    TITLE "0:"
    INDEX 01 00:17:51
  TRACK 11 AUDIO
    TITLE "14:cjc040_0091"
    INDEX 01 00:18:25
  TRACK 12 AUDIO
    TITLE "0:"
    INDEX 01 00:22:23
  TRACK 13 AUDIO
    TITLE "12:cjc040_0092"
    INDEX 01 00:23:10
  TRACK 14 AUDIO
    TITLE "0:"
    INDEX 01 00:24:72
  TRACK 15 AUDIO
    TITLE "13:cjc040_0093"
    INDEX 01 00:25:50
  TRACK 16 AUDIO
    TITLE "0:"
    INDEX 01 00:27:24
  TRACK 17 AUDIO
    TITLE "14:cjc040_0094"
    INDEX 01 00:27:71
  TRACK 18 AUDIO
    TITLE "0:"
    INDEX 01 00:32:05
  TRACK 19 AUDIO
    TITLE "12:cjc040_0095"
    INDEX 01 00:32:60
  TRACK 20 AUDIO
    TITLE "0:"
    INDEX 01 00:34:55
  TRACK 21 AUDIO
    TITLE "13:cjc040_0096"
    INDEX 01 00:35:33
  TRACK 22 AUDIO
    TITLE "0:"
    INDEX 01 00:37:32
  TRACK 23 AUDIO
    TITLE "14:cjc040_0097"
    INDEX 01 00:38:10
  TRACK 24 AUDIO
    TITLE "0:"
    INDEX 01 00:44:01
  TRACK 25 AUDIO
    TITLE "12:cjc040_0098"
    INDEX 01 00:44:58
  TRACK 26 AUDIO
    TITLE "0:"
    INDEX 01 00:46:41
  TRACK 27 AUDIO
    TITLE "13:cjc040_0099"
    INDEX 01 00:47:21
  TRACK 28 AUDIO
    TITLE "0:"
    INDEX 01 00:49:39
  TRACK 29 AUDIO
    TITLE "14:cjc040_0100"
    INDEX 01 00:50:17
  TRACK 30 AUDIO
    TITLE "0:"
    INDEX 01 00:53:60
  TRACK 31 AUDIO
    TITLE "12:cjc040_0101"
    INDEX 01 00:54:38
  TRACK 32 AUDIO
    TITLE "0:"
    INDEX 01 00:56:18
  TRACK 33 AUDIO
    TITLE "13:cjc040_0102"
    INDEX 01 00:57:07
  TRACK 34 AUDIO
    TITLE "0:"
    INDEX 01 00:59:30
  TRACK 35 AUDIO
    TITLE "14:cjc040_0103"
    INDEX 01 01:00:12
  TRACK 36 AUDIO
    TITLE "0:"
    INDEX 01 01:04:29
  TRACK 37 AUDIO
    TITLE "12:cjc040_0104"
    INDEX 01 01:05:11
  TRACK 38 AUDIO
    TITLE "0:"
    INDEX 01 01:07:31
  TRACK 39 AUDIO
    TITLE "13:cjc040_0105"
    INDEX 01 01:08:05
  TRACK 40 AUDIO
    TITLE "0:"
    INDEX 01 01:11:05
  TRACK 41 AUDIO
    TITLE "14:cjc040_0106"
    INDEX 01 01:11:51
  TRACK 42 AUDIO
    TITLE "0:"
    INDEX 01 01:16:46
  TRACK 43 AUDIO
    TITLE "12:cjc040_0107"
    INDEX 01 01:17:30
  TRACK 44 AUDIO
    TITLE "0:"
    INDEX 01 01:19:17
  TRACK 45 AUDIO
    TITLE "13:cjc040_0108"
    INDEX 01 01:19:74
  TRACK 46 AUDIO
    TITLE "0:"
    INDEX 01 01:22:21
  TRACK 47 AUDIO
    TITLE "14:cjc040_0109"
    INDEX 01 01:22:74
  TRACK 48 AUDIO
    TITLE "0:"
    INDEX 01 01:27:32
  TRACK 49 AUDIO
    TITLE "12:cjc040_0110"
    INDEX 01 01:28:14
  TRACK 50 AUDIO
    TITLE "0:"
    INDEX 01 01:30:13
  TRACK 51 AUDIO
    TITLE "13:cjc040_0111"
    INDEX 01 01:31:00
  TRACK 52 AUDIO
    TITLE "0:"
    INDEX 01 01:33:17
  TRACK 53 AUDIO
    TITLE "14:cjc040_0112"
    INDEX 01 01:33:72
  TRACK 54 AUDIO
    TITLE "0:"
    INDEX 01 01:38:30
  TRACK 55 AUDIO
    TITLE "12:cjc040_0113"
    INDEX 01 01:39:15
  TRACK 56 AUDIO
    TITLE "0:"
    INDEX 01 01:41:10
  TRACK 57 AUDIO
    TITLE "13:cjc040_0114"
    INDEX 01 01:41:63
  TRACK 58 AUDIO
    TITLE "0:"
    INDEX 01 01:43:49
  TRACK 59 AUDIO
    TITLE "14:cjc040_0115"
    INDEX 01 01:44:23
  TRACK 60 AUDIO
    TITLE "0:"
    INDEX 01 01:48:69
  TRACK 61 AUDIO
    TITLE "12:cjc040_0116"
    INDEX 01 01:49:49
  TRACK 62 AUDIO
    TITLE "0:"
    INDEX 01 01:51:28
  TRACK 63 AUDIO
    TITLE "13:cjc040_0117"
    INDEX 01 01:52:08
  TRACK 64 AUDIO
    TITLE "0:"
    INDEX 01 01:53:45
  TRACK 65 AUDIO
    TITLE "14:cjc040_0118"
    INDEX 01 01:54:19
  TRACK 66 AUDIO
    TITLE "0:"
    INDEX 01 01:59:69
  TRACK 67 AUDIO
    TITLE "12:cjc040_0119"
    INDEX 01 02:00:49
  TRACK 68 AUDIO
    TITLE "0:"
    INDEX 01 02:02:42
  TRACK 69 AUDIO
    TITLE "13:cjc040_0120"
    INDEX 01 02:03:24
  TRACK 70 AUDIO
    TITLE "0:"
    INDEX 01 02:06:12
  TRACK 71 AUDIO
    TITLE "14:cjc040_0121"
    INDEX 01 02:06:69
  TRACK 72 AUDIO
    TITLE "0:"
    INDEX 01 02:11:47
  TRACK 73 AUDIO
    TITLE "12:cjc040_0122"
    INDEX 01 02:12:27
  TRACK 74 AUDIO
    TITLE "0:"
    INDEX 01 02:14:14
  TRACK 75 AUDIO
    TITLE "13:cjc040_0123"
    INDEX 01 02:15:00
  TRACK 76 AUDIO
    TITLE "0:"
    INDEX 01 02:16:54
  TRACK 77 AUDIO
    TITLE "14:cjc040_0124"
    INDEX 01 02:17:36
  TRACK 78 AUDIO
    TITLE "0:"
    INDEX 01 02:21:41
  TRACK 79 AUDIO
    TITLE "12:cjc040_0125"
    INDEX 01 02:22:19
  TRACK 80 AUDIO
    TITLE "0:"
    INDEX 01 02:24:08
  TRACK 81 AUDIO
    TITLE "13:cjc040_0126"
    INDEX 01 02:24:65
  TRACK 82 AUDIO
    TITLE "0:"
    INDEX 01 02:27:09
  TRACK 83 AUDIO
    TITLE "14:cjc040_0127"
    INDEX 01 02:27:63
  TRACK 84 AUDIO
    TITLE "0:"
    INDEX 01 02:34:73
